<?xml version="1.0" encoding="UTF-8" standalone="no"?>
<!-- Created with Inkscape (http://www.inkscape.org/) -->

<svg
   xmlns:dc="http://purl.org/dc/elements/1.1/"
   xmlns:cc="http://creativecommons.org/ns#"
   xmlns:rdf="http://www.w3.org/1999/02/22-rdf-syntax-ns#"
   xmlns:svg="http://www.w3.org/2000/svg"
   xmlns="http://www.w3.org/2000/svg"
   xmlns:sodipodi="http://sodipodi.sourceforge.net/DTD/sodipodi-0.dtd"
   xmlns:inkscape="http://www.inkscape.org/namespaces/inkscape"
   width="210mm"
   height="210mm"
   viewBox="0 0 210 210"
   version="1.1"
   id="svg8"
   inkscape:export-filename="C:\Users\Iago Felipe Trentin\git\iaco-io.github.io\images\logo.png"
   inkscape:export-xdpi="137"
   inkscape:export-ydpi="137"
   inkscape:version="0.92.5 (2060ec1f9f, 2020-04-08)"
   sodipodi:docname="logo.svg">
  <defs
     id="defs2" />
  <sodipodi:namedview
     id="base"
     pagecolor="#ffffff"
     bordercolor="#666666"
     borderopacity="1.0"
     inkscape:pageopacity="0.0"
     inkscape:pageshadow="2"
     inkscape:zoom="0.35"
     inkscape:cx="471.42857"
     inkscape:cy="445.71429"
     inkscape:document-units="mm"
     inkscape:current-layer="layer1"
     showgrid="false"
     inkscape:window-width="1856"
     inkscape:window-height="1057"
     inkscape:window-x="-8"
     inkscape:window-y="-8"
     inkscape:window-maximized="1" />
  <metadata
     id="metadata5">
    <rdf:RDF>
      <cc:Work
         rdf:about="">
        <dc:format>image/svg+xml</dc:format>
        <dc:type
           rdf:resource="http://purl.org/dc/dcmitype/StillImage" />
        <dc:title></dc:title>
      </cc:Work>
    </rdf:RDF>
  </metadata>
  <g
     inkscape:label="Layer 1"
     inkscape:groupmode="layer"
     id="layer1"
     transform="translate(0,-87)">
    <path
       style="opacity:1;vector-effect:none;fill:#ffffff;fill-opacity:1;stroke:none;stroke-width:10.40200043;stroke-linecap:round;stroke-linejoin:miter;stroke-miterlimit:4;stroke-dasharray:none;stroke-dashoffset:0;stroke-opacity:1"
       d="M 0 0 L 0 793.70117 L 793.70117 793.70117 L 793.70117 0 L 0 0 z M 275.25 88.849609 L 518.45117 88.849609 L 518.45117 119.25 C 501.3845 119.78333 487.51628 121.91706 476.84961 125.65039 C 466.71628 129.38372 458.71628 135.78294 452.84961 144.84961 C 447.51628 153.38294 443.78372 165.38294 441.65039 180.84961 C 440.05039 196.31628 439.25 216.05078 439.25 240.05078 L 439.25 553.65039 C 439.25 580.31706 440.31784 601.38294 442.45117 616.84961 C 444.58451 632.31628 448.58451 644.31628 454.45117 652.84961 C 460.85117 661.38294 469.64961 666.98372 480.84961 669.65039 C 492.58294 672.31706 507.7845 673.91784 526.45117 674.45117 L 526.45117 704.84961 L 267.25 704.84961 L 267.25 674.45117 C 285.91667 673.91784 300.85078 672.31706 312.05078 669.65039 C 323.78411 666.45039 332.85 660.84961 339.25 652.84961 C 345.65 644.84961 349.91745 633.65 352.05078 619.25 C 354.18411 604.31667 355.25 584.31667 355.25 559.25 L 355.25 234.45117 C 355.25 212.05117 354.18411 193.65 352.05078 179.25 C 350.45078 164.31667 346.71628 152.58411 340.84961 144.05078 C 335.51628 135.51745 327.51628 129.65117 316.84961 126.45117 C 306.18294 122.71784 292.31667 120.31667 275.25 119.25 L 275.25 88.849609 z "
       transform="matrix(0.26458333,0,0,0.26458333,0,87)"
       id="rect815" />
  </g>
</svg>
