<?xml version="1.0" standalone="no"?>
<!DOCTYPE svg PUBLIC "-//W3C//DTD SVG 20010904//EN"
 "http://www.w3.org/TR/2001/REC-SVG-20010904/DTD/svg10.dtd">
<svg version="1.0" xmlns="http://www.w3.org/2000/svg"
 width="979.000000pt" height="979.000000pt" viewBox="0 0 979.000000 979.000000"
 preserveAspectRatio="xMidYMid meet">
<metadata>
Created by potrace 1.11, written by Peter Selinger 2001-2013
</metadata>
<g transform="translate(0.000000,979.000000) scale(0.100000,-0.100000)"
fill="#000000" stroke="none">
<path d="M0 4895 l0 -4895 167 0 166 0 59 61 c32 33 58 64 58 68 0 4 18 20 40
37 22 16 42 36 45 45 3 8 41 53 85 99 44 46 80 92 80 102 0 10 8 22 19 26 10
4 31 22 46 40 15 17 33 32 41 32 9 0 14 11 14 29 0 22 8 35 33 52 39 28 97 85
97 97 0 4 20 23 45 42 25 19 45 37 45 41 0 15 105 129 119 129 5 0 14 13 21
30 7 16 19 30 27 30 8 0 40 25 71 56 31 31 69 63 83 71 14 9 33 28 42 42 9 15
28 33 44 41 38 20 72 52 86 81 7 13 27 30 45 38 17 8 32 20 32 26 0 6 27 33
60 61 33 27 60 57 60 67 0 9 4 17 9 17 5 0 13 9 16 20 3 11 12 20 18 20 15 0
40 38 42 64 1 10 10 25 21 33 10 8 18 18 17 23 -5 19 99 120 123 120 19 0 24
5 24 24 0 27 18 37 49 29 15 -4 21 -1 21 11 0 9 25 41 55 71 30 29 55 57 55
63 0 16 37 44 45 33 12 -20 23 -11 42 34 10 26 25 45 34 45 18 0 79 60 79 78
0 7 6 12 14 12 8 0 18 9 21 20 3 11 10 20 15 20 5 0 7 6 4 13 -2 7 8 17 26 24
20 8 30 18 30 32 0 11 9 26 20 33 11 7 20 21 20 31 0 10 8 21 18 24 9 4 23 15
31 26 7 10 19 16 27 13 10 -4 14 3 14 24 0 21 5 30 16 30 8 0 24 20 35 46 11
25 28 48 37 52 24 9 42 28 42 45 0 8 7 17 15 21 8 3 15 12 15 20 0 27 63 109
151 198 47 49 91 88 97 88 5 0 12 -9 15 -20 5 -19 27 -29 27 -12 0 5 20 23 45
41 34 24 45 28 45 17 0 -21 10 -20 25 0 11 15 14 15 38 0 18 -13 31 -15 44 -8
10 6 44 12 77 13 50 3 60 1 70 -16 6 -11 17 -24 24 -28 17 -11 15 -62 -3 -77
-8 -7 -15 -18 -15 -26 0 -7 -16 -25 -35 -40 -19 -14 -35 -32 -35 -40 0 -7 -9
-16 -20 -19 -11 -3 -20 -9 -20 -13 0 -4 -18 -27 -40 -51 -48 -52 -48 -75 -2
-79 26 -3 32 -8 32 -26 0 -54 -59 -61 -75 -8 -9 32 -35 45 -35 17 0 -8 -11
-17 -25 -21 -14 -3 -25 -12 -25 -20 0 -7 -10 -20 -21 -28 -12 -8 -30 -27 -40
-42 -9 -15 -66 -77 -126 -138 -200 -206 -313 -327 -313 -336 0 -5 -28 -38 -62
-73 -96 -98 -118 -123 -118 -133 -1 -5 -19 -25 -41 -44 -65 -56 -92 -83 -119
-117 -14 -18 -30 -33 -36 -33 -7 0 -19 -11 -28 -25 -9 -14 -23 -25 -30 -25 -8
0 -20 -10 -29 -22 -8 -13 -45 -54 -82 -93 -37 -38 -99 -104 -138 -145 -40 -41
-80 -77 -89 -80 -9 -3 -31 -27 -50 -55 -27 -41 -38 -50 -63 -50 -27 0 -30 -3
-30 -30 -1 -18 -7 -31 -15 -33 -8 -2 -23 -21 -33 -42 -10 -22 -25 -40 -32 -40
-8 0 -29 -18 -47 -41 -26 -32 -37 -39 -55 -34 -21 5 -23 3 -17 -19 6 -26 -10
-44 -22 -24 -6 9 -10 5 -14 -12 -4 -17 -12 -24 -25 -22 -13 3 -16 -1 -11 -13
4 -12 -10 -36 -46 -79 -113 -131 -168 -187 -168 -168 0 7 -7 12 -15 12 -17 0
-20 -16 -5 -25 6 -4 -7 -21 -29 -38 -22 -18 -40 -37 -40 -44 -1 -6 -5 -13 -10
-15 -14 -5 -151 -138 -151 -146 0 -4 -20 -29 -45 -55 -25 -27 -45 -53 -45 -59
0 -6 -9 -8 -20 -5 -12 3 -20 0 -20 -8 0 -6 -18 -33 -41 -59 l-41 -46 4506 0
4506 0 0 4895 0 4895 -4895 0 -4895 0 0 -4895z m7603 3443 c17 -13 27 -28 27
-45 0 -13 10 -58 22 -99 l21 -74 -32 -28 c-35 -30 -35 -56 2 -66 26 -6 36 8
38 54 1 19 4 49 8 65 l7 30 12 -36 c9 -27 10 -44 2 -64 -7 -19 -8 -37 -1 -54
5 -14 12 -43 16 -63 5 -31 3 -37 -10 -32 -8 4 -15 18 -15 34 0 15 -6 32 -12
38 -16 12 -62 -3 -53 -18 3 -5 0 -18 -6 -29 -10 -15 -9 -22 4 -36 9 -9 17 -23
17 -31 0 -8 5 -14 12 -14 6 0 4 -6 -7 -13 -10 -8 -15 -19 -11 -25 9 -14 36
-16 36 -2 0 5 7 7 15 4 11 -4 15 -21 15 -58 0 -78 -16 -125 -45 -132 -30 -7
-33 -24 -4 -24 14 0 18 -4 12 -12 -4 -7 -13 -49 -20 -93 -15 -104 -39 -218
-52 -242 -32 -61 -51 -118 -51 -157 0 -35 -4 -46 -19 -51 -14 -4 -18 -15 -18
-45 0 -35 -32 -169 -53 -225 -4 -11 -14 -40 -21 -64 -7 -24 -19 -45 -26 -48
-7 -3 -15 -21 -19 -41 -3 -21 -14 -49 -25 -64 -10 -15 -19 -34 -19 -42 0 -31
-75 -190 -127 -270 -25 -37 -63 -104 -85 -147 -22 -43 -44 -81 -49 -85 -5 -3
-23 -33 -40 -67 -17 -34 -39 -71 -49 -82 -10 -11 -34 -51 -54 -90 -20 -38 -43
-76 -51 -85 -8 -9 -20 -30 -26 -48 -6 -17 -26 -43 -45 -57 -19 -14 -43 -45
-53 -68 -11 -23 -44 -76 -75 -117 -31 -41 -63 -90 -72 -108 -8 -18 -21 -35
-29 -38 -7 -3 -16 -13 -19 -22 -3 -9 -9 -24 -14 -32 -5 -8 -15 -28 -23 -45 -8
-16 -25 -34 -37 -40 -12 -5 -31 -28 -41 -50 -10 -22 -30 -50 -42 -62 -13 -12
-33 -34 -44 -48 -11 -14 -28 -35 -37 -47 -10 -12 -18 -29 -18 -38 0 -10 -18
-30 -40 -45 -22 -15 -60 -53 -85 -84 -92 -114 -163 -191 -175 -191 -6 0 -10
-6 -10 -13 0 -7 -21 -35 -46 -63 -131 -140 -173 -227 -132 -271 15 -16 19 -30
15 -50 -2 -15 -2 -52 2 -81 7 -51 -12 -251 -27 -282 -4 -8 -7 -49 -7 -90 0
-70 -16 -152 -36 -192 -5 -10 -9 -25 -9 -33 0 -8 -4 -15 -9 -15 -5 0 -14 -13
-21 -30 -7 -16 -21 -39 -31 -51 -10 -12 -19 -33 -19 -47 0 -13 -13 -41 -29
-61 -15 -20 -31 -49 -35 -65 -4 -15 -29 -51 -55 -80 -27 -28 -52 -62 -56 -75
-4 -14 -31 -48 -59 -77 -28 -29 -65 -67 -82 -86 -17 -18 -40 -40 -50 -48 -11
-9 -32 -33 -48 -53 -16 -20 -31 -35 -34 -33 -5 6 18 48 33 61 25 21 87 116 80
123 -3 4 -20 -9 -36 -28 -63 -77 -85 -103 -110 -128 -14 -15 -28 -35 -32 -44
-3 -10 -13 -18 -21 -18 -8 0 -23 -13 -32 -29 -10 -17 -28 -31 -43 -34 -14 -3
-40 -10 -57 -18 -28 -11 -34 -10 -63 10 -34 25 -43 15 -11 -14 28 -25 25 -51
-5 -59 -13 -3 -38 -20 -55 -36 -17 -17 -35 -30 -41 -30 -6 0 -25 -15 -42 -32
-52 -53 -86 -78 -106 -78 -36 0 -81 -13 -81 -23 0 -10 -30 -36 -42 -37 -5 0
-8 14 -8 30 0 32 -14 40 -24 15 -3 -8 -12 -15 -21 -15 -12 0 -14 14 -12 75 1
41 5 75 10 75 4 0 7 7 7 16 0 9 7 31 16 50 20 42 13 52 -19 28 -18 -14 -24
-28 -24 -57 0 -47 -3 -50 -44 -39 -30 8 -34 12 -31 38 2 16 14 45 28 65 18 27
23 43 18 67 -9 44 1 73 37 110 24 24 37 30 55 26 18 -5 24 -2 24 10 0 9 -4 16
-10 16 -14 0 48 98 70 110 15 8 17 15 10 42 -8 24 -5 38 9 62 10 17 21 43 25
58 3 16 11 28 16 28 6 0 10 8 10 18 0 28 24 72 39 72 8 0 11 6 7 16 -4 9 -2
22 3 28 5 6 11 27 14 46 3 19 10 53 16 75 6 22 13 67 15 100 3 33 11 64 18 70
8 5 12 18 10 29 -3 12 1 17 10 14 7 -3 12 -12 12 -20 -2 -20 75 -45 86 -29 8
14 70 3 70 -11 0 -6 7 -5 15 2 13 11 15 7 15 -29 0 -27 -4 -40 -12 -38 -15 2
-15 4 -4 -86 9 -70 -9 -252 -26 -272 -4 -5 -8 -19 -8 -32 0 -21 -6 -39 -36
-110 -16 -37 -18 -73 -4 -73 6 0 10 5 10 10 0 6 6 10 14 10 7 0 30 11 50 25
20 14 45 25 55 25 17 0 91 75 91 92 0 19 -20 15 -33 -6 -18 -27 -67 -41 -67
-20 0 8 5 14 12 14 6 0 26 17 45 38 l34 37 19 -25 19 -25 10 27 c5 15 19 32
31 38 14 7 19 17 15 29 -4 13 5 28 30 49 19 17 35 40 35 50 0 11 7 25 15 32 8
7 15 19 15 27 0 8 11 31 25 51 14 20 25 43 25 51 0 8 6 22 14 30 13 16 35 76
58 164 11 40 18 50 50 64 26 12 38 24 40 41 4 36 28 40 29 5 1 -27 1 -27 11 7
6 22 6 40 0 50 -5 8 -7 21 -4 29 4 11 6 11 13 0 4 -7 11 -10 15 -7 4 4 0 18
-8 30 -9 14 -13 37 -10 61 7 64 -31 42 -43 -25 -4 -21 -12 -38 -17 -38 -5 0
-7 8 -4 18 3 9 8 31 12 47 4 17 15 46 26 65 15 30 18 31 18 12 0 -13 4 -20 10
-17 13 8 13 55 0 55 -5 0 -16 12 -23 27 l-15 27 -13 -22 c-8 -12 -19 -22 -26
-22 -15 0 -38 -40 -35 -57 2 -7 -2 -13 -8 -13 -5 0 -19 -8 -29 -17 -32 -30
-72 -63 -77 -63 -2 0 -22 -18 -44 -40 -22 -22 -46 -40 -54 -40 -8 0 -16 -7
-19 -14 -3 -8 -22 -18 -41 -21 -20 -4 -33 -12 -30 -19 2 -6 -10 -20 -27 -30
-25 -15 -44 -17 -105 -13 -43 3 -74 2 -74 -4 0 -5 6 -9 14 -9 8 0 16 -6 19
-14 4 -10 -11 -21 -51 -37 -31 -12 -66 -29 -76 -38 -14 -12 -20 -13 -23 -3 -3
6 -10 12 -17 12 -25 0 -43 35 -45 88 -2 52 -2 52 28 52 23 0 44 13 83 50 28
27 65 52 82 56 17 3 40 14 51 24 11 10 34 21 52 25 17 3 34 12 36 19 3 9 15
12 31 9 14 -3 26 -1 26 3 0 5 15 26 33 46 17 20 48 56 67 78 32 37 38 40 69
35 33 -6 33 -6 29 24 -3 21 0 31 8 31 7 0 18 10 25 21 14 26 55 64 90 84 14 7
37 32 52 54 15 22 66 80 114 129 90 91 221 240 237 270 8 15 91 116 124 150 6
7 12 17 12 22 0 5 15 24 33 43 17 18 41 44 53 58 11 13 33 34 47 46 15 13 27
29 27 37 0 8 6 19 13 23 17 11 77 88 77 100 0 5 8 16 18 24 9 9 37 41 62 72
25 30 52 57 60 60 14 4 29 31 76 132 11 22 27 48 36 59 10 11 23 35 29 54 13
40 48 94 84 129 13 14 38 49 54 78 17 29 34 56 40 59 5 3 23 35 40 70 17 36
38 69 46 73 8 5 35 49 59 98 57 113 101 194 159 287 25 40 50 90 57 111 6 20
15 37 19 37 4 0 15 28 25 63 9 34 30 98 45 142 16 44 34 100 41 125 7 25 16
56 21 70 4 14 11 47 15 73 3 26 12 54 19 60 21 22 43 71 50 112 6 40 9 53 41
175 10 39 16 95 14 140 -3 110 -3 109 7 183 5 37 6 67 1 67 -14 0 -9 47 7 60
19 16 20 34 1 27 -19 -7 -28 18 -21 57 3 17 0 56 -7 87 l-13 56 -51 -16 c-28
-9 -57 -21 -65 -28 -8 -6 -28 -15 -44 -19 -17 -4 -36 -11 -42 -16 -7 -6 -19
-8 -27 -5 -17 7 -36 -11 -36 -35 0 -25 -36 -23 -43 2 -3 11 -13 20 -22 20 -17
0 -17 -11 0 -52 4 -11 3 -18 -3 -18 -6 0 -28 -11 -48 -25 -22 -15 -45 -23 -56
-19 -12 3 -18 0 -18 -9 0 -8 -12 -23 -26 -33 -14 -10 -42 -31 -61 -46 -20 -16
-39 -28 -44 -28 -5 0 -30 -19 -57 -42 -61 -53 -178 -139 -212 -155 -48 -24
-95 -55 -119 -79 -13 -13 -30 -24 -38 -24 -7 0 -16 -7 -19 -15 -4 -8 -10 -15
-15 -15 -12 0 -73 -42 -77 -52 -2 -5 -14 -8 -28 -8 -14 0 -30 -10 -40 -25 -9
-14 -21 -25 -26 -25 -6 0 -23 -10 -38 -22 -39 -32 -77 -60 -115 -83 -18 -11
-70 -48 -114 -82 -45 -35 -86 -63 -91 -63 -6 0 -10 -5 -10 -10 0 -6 -8 -13
-17 -17 -22 -8 -156 -93 -163 -103 -3 -4 -24 -19 -48 -34 -24 -15 -46 -34 -49
-42 -3 -8 -23 -22 -44 -31 -22 -8 -39 -19 -39 -24 0 -5 -15 -15 -34 -23 -18
-7 -49 -29 -67 -47 -60 -58 -179 -163 -197 -174 -34 -19 -162 -127 -162 -136
0 -5 -8 -12 -17 -16 -10 -3 -34 -22 -54 -42 -92 -92 -137 -131 -152 -131 -10
0 -17 -4 -17 -8 0 -5 -25 -33 -55 -63 -30 -30 -55 -59 -55 -66 0 -6 -14 -16
-30 -22 -17 -5 -33 -18 -37 -28 -4 -9 -35 -44 -70 -76 -35 -33 -63 -66 -63
-73 0 -8 -5 -14 -10 -14 -6 0 -15 -10 -21 -22 -17 -38 -33 -61 -66 -96 -18
-18 -34 -41 -37 -50 -3 -10 -20 -26 -36 -35 -17 -10 -39 -36 -50 -57 -11 -22
-29 -44 -40 -50 -11 -6 -20 -17 -20 -25 0 -8 -8 -19 -17 -24 -10 -5 -27 -30
-38 -55 -11 -25 -26 -46 -32 -46 -7 0 -13 -6 -13 -14 0 -9 -12 -16 -27 -18
-22 -2 -33 -13 -50 -50 -12 -25 -27 -49 -32 -53 -6 -3 -11 -17 -11 -31 0 -15
-6 -24 -15 -24 -9 0 -15 -9 -15 -23 0 -27 -34 -59 -55 -51 -11 5 -15 -1 -15
-20 0 -14 -4 -26 -10 -26 -5 0 -10 -9 -10 -21 0 -14 -5 -19 -14 -16 -14 6 -56
-43 -56 -66 0 -8 -9 -22 -20 -32 -14 -13 -20 -31 -20 -62 0 -36 -3 -43 -20
-43 -14 0 -20 -7 -20 -22 0 -12 -7 -29 -16 -39 -17 -18 -13 -49 5 -49 6 0 19
18 29 41 19 40 57 69 93 69 11 0 19 -5 19 -10 0 -22 -51 -110 -70 -120 -11 -6
-23 -23 -27 -39 -5 -16 -28 -45 -53 -66 -24 -20 -52 -50 -62 -66 -15 -24 -24
-29 -58 -29 -30 0 -40 -4 -40 -16 0 -9 9 -18 20 -21 39 -10 19 -23 -35 -23
-44 0 -56 -4 -65 -20 -6 -11 -17 -20 -25 -20 -8 0 -15 -4 -15 -9 0 -10 -76 -9
-86 2 -4 4 -14 7 -21 7 -11 0 -13 -8 -8 -29 5 -23 2 -30 -12 -33 -10 -3 -26 3
-36 11 -17 15 -20 14 -38 -8 -19 -23 -62 -51 -79 -51 -15 0 -130 -120 -130
-135 0 -10 -10 -15 -26 -15 -22 0 -25 -2 -14 -15 11 -13 8 -15 -19 -15 -17 0
-31 -5 -31 -11 0 -7 -9 -21 -20 -33 -11 -12 -35 -37 -53 -57 -19 -20 -46 -44
-60 -54 -14 -9 -29 -25 -32 -36 -4 -10 -13 -19 -21 -19 -8 0 -17 -8 -21 -17
-3 -10 -20 -37 -37 -60 -27 -37 -36 -42 -71 -43 -33 0 -48 7 -87 43 -55 51
-66 91 -49 174 14 72 14 76 -4 69 -11 -4 -15 2 -15 21 0 27 37 141 52 158 4 5
8 17 8 27 0 10 5 18 10 18 6 0 8 10 4 24 -4 16 -1 25 10 29 10 4 16 18 16 37
0 16 8 38 18 48 11 11 27 43 37 73 10 30 30 70 44 89 14 19 35 52 45 73 11 21
28 43 38 48 10 5 18 21 18 35 0 21 23 71 65 142 6 9 23 31 39 47 16 17 39 47
52 68 14 20 31 37 39 37 8 0 15 7 15 15 0 21 86 130 116 146 14 7 32 27 40 45
21 43 163 191 195 203 15 5 39 30 55 55 16 25 38 48 49 52 11 4 29 15 40 26
143 134 297 212 465 237 36 5 96 18 135 29 71 21 99 18 118 -14 4 -8 13 -14
18 -14 15 0 96 85 104 110 3 11 11 20 16 20 5 0 28 20 51 45 23 25 50 45 60
45 10 0 18 7 18 15 0 8 7 15 15 15 8 0 15 7 15 15 0 8 26 42 58 76 31 34 64
72 73 86 9 13 26 31 38 39 11 8 21 21 21 29 0 7 13 21 29 32 16 10 45 38 66
63 20 25 45 50 54 55 32 19 126 92 140 108 7 10 19 17 26 17 6 0 27 17 46 38
52 56 139 130 188 160 24 15 54 37 67 48 12 12 49 42 81 67 32 24 67 54 77 66
11 11 29 21 42 21 12 0 32 12 43 26 21 27 117 94 134 94 5 0 19 9 31 19 75 69
95 84 134 102 24 11 46 26 49 34 3 8 11 15 18 15 7 0 34 18 61 40 26 21 60 42
74 45 15 3 40 20 56 36 16 17 43 36 59 44 17 7 45 27 64 44 19 17 39 31 45 31
6 0 17 9 24 20 7 11 19 20 28 20 25 0 96 42 122 73 13 15 32 27 42 27 10 0 20
6 23 13 3 8 21 22 41 31 20 9 63 40 96 67 34 28 75 55 93 61 32 11 81 47 139
101 16 15 42 30 58 34 16 3 39 16 51 29 12 13 27 24 33 24 6 0 17 9 24 20 7
11 18 20 26 20 7 0 26 11 42 25 15 13 42 27 59 31 16 3 44 17 62 30 17 13 36
24 42 24 6 0 28 9 48 20 21 11 47 20 58 20 12 0 25 4 31 9 5 5 50 30 99 56 50
26 94 51 99 56 10 9 15 7 59 -23z m107 -442 c0 -7 -7 -19 -15 -26 -13 -11 -15
-8 -15 14 0 16 5 26 15 26 8 0 15 -6 15 -14z m-1565 -1217 c28 -6 56 -16 63
-22 8 -6 12 -6 12 2 0 16 26 14 63 -5 57 -30 97 -85 112 -152 4 -18 13 -36 20
-39 34 -13 49 -57 51 -153 1 -53 -3 -98 -8 -101 -7 -4 -6 -14 1 -27 18 -34 13
-77 -15 -117 -22 -33 -24 -39 -10 -47 21 -12 10 -35 -20 -42 -13 -4 -24 -13
-24 -21 0 -9 -12 -20 -27 -26 -15 -6 -31 -16 -35 -22 -6 -9 -11 -8 -18 3 -7
11 -10 4 -10 -27 0 -38 -3 -42 -29 -48 -33 -7 -57 -30 -63 -60 -2 -11 -14 -25
-27 -31 -12 -7 -31 -26 -42 -43 -10 -17 -26 -31 -34 -31 -9 0 -28 -13 -43 -29
-15 -16 -44 -34 -64 -41 -21 -6 -41 -17 -45 -24 -12 -20 -48 -36 -80 -36 -66
0 -290 84 -359 135 -23 16 -54 38 -68 49 -14 10 -28 26 -31 36 -3 10 -14 20
-25 23 -11 3 -22 18 -26 33 -4 16 -16 41 -27 56 l-20 27 27 71 c29 79 32 106
14 113 -9 3 -5 19 15 55 15 27 27 57 27 65 0 8 10 17 22 20 17 5 19 9 10 20
-18 22 11 70 89 149 37 38 70 81 74 96 8 31 42 72 62 72 7 0 13 6 13 14 0 15
53 46 115 66 22 7 46 18 54 24 8 6 50 13 95 16 45 3 99 6 121 8 22 1 63 -3 90
-9z m-2224 -2142 c30 -27 37 -42 42 -86 4 -33 2 -62 -5 -75 -6 -11 -11 -35
-10 -52 2 -27 -2 -33 -30 -45 -48 -19 -101 -75 -123 -129 -4 -8 -11 -24 -17
-35 -6 -11 -12 -45 -14 -75 -3 -66 -20 -148 -34 -165 -6 -7 -8 -19 -4 -28 3
-8 -4 -61 -16 -117 -20 -98 -20 -103 -3 -116 10 -7 27 -14 37 -14 23 0 121 47
137 66 6 8 19 14 28 14 9 0 29 7 45 15 15 8 34 15 41 15 8 0 23 12 35 27 16
21 23 24 30 14 5 -9 17 -11 34 -7 20 5 26 13 26 35 0 22 20 46 99 122 54 52
101 104 105 115 4 12 15 29 26 39 11 10 20 23 21 29 0 6 16 24 35 39 31 26 39
28 84 22 67 -9 94 -41 85 -100 -4 -22 -13 -50 -21 -62 -8 -12 -14 -30 -14 -39
0 -9 -9 -18 -20 -21 -17 -5 -20 -14 -20 -64 0 -56 -1 -59 -25 -59 -35 0 -71
-26 -90 -63 -19 -38 -19 -36 5 -30 11 3 20 1 20 -3 -1 -12 -95 -84 -109 -84
-6 0 -10 -5 -8 -12 1 -7 -3 -12 -10 -13 -6 0 -23 -12 -37 -28 -14 -15 -39 -30
-55 -33 -17 -4 -45 -19 -62 -35 -39 -34 -45 -35 -52 -9 -8 31 -27 24 -27 -10
0 -27 -4 -31 -45 -42 -25 -7 -45 -15 -45 -19 0 -15 -65 -39 -91 -34 -19 4 -28
1 -32 -9 -4 -9 -15 -16 -27 -16 -26 0 -110 -20 -133 -32 -10 -5 -23 -6 -28 -2
-6 3 -28 -2 -49 -11 -45 -20 -77 -15 -117 19 l-28 24 1 153 c1 90 7 173 14
199 13 47 24 109 41 225 5 38 19 85 30 104 11 18 19 43 17 54 -2 11 3 22 10
24 7 3 12 -6 13 -24 1 -17 3 -21 6 -10 2 9 11 17 19 17 22 0 17 41 -6 47 -11
3 -20 14 -20 24 0 21 16 34 25 19 10 -15 35 -12 35 5 0 8 -6 15 -14 15 -23 0
-31 22 -13 35 9 6 21 23 27 36 19 42 39 73 53 84 7 5 17 22 20 36 7 29 47 79
64 79 6 0 15 10 18 23 11 33 46 67 69 67 12 0 37 -15 57 -33z m-721 -196 c0
-5 -7 -14 -15 -21 -12 -10 -15 -10 -15 2 0 8 3 18 7 21 9 10 23 9 23 -2z
m1270 -589 c0 -10 -41 -35 -47 -28 -7 7 20 35 35 36 6 0 12 -3 12 -8z m750
-1002 c0 -5 -4 -10 -10 -10 -5 0 -10 5 -10 10 0 6 5 10 10 10 6 0 10 -4 10
-10z m-1810 -320 c0 -5 -4 -10 -10 -10 -5 0 -10 5 -10 10 0 6 5 10 10 10 6 0
10 -4 10 -10z m15 -660 c3 -5 1 -10 -4 -10 -6 0 -11 5 -11 10 0 6 2 10 4 10 3
0 8 -4 11 -10z"/>
<path d="M7536 8132 c-3 -6 -1 -14 5 -17 15 -10 25 3 12 16 -7 7 -13 7 -17 1z"/>
<path d="M7586 8094 c-11 -28 -6 -39 9 -20 8 11 15 23 15 28 0 14 -18 9 -24
-8z"/>
<path d="M7522 8030 c0 -14 2 -19 5 -12 2 6 2 18 0 25 -3 6 -5 1 -5 -13z"/>
<path d="M7160 8010 c0 -5 5 -10 10 -10 6 0 10 5 10 10 0 6 -4 10 -10 10 -5 0
-10 -4 -10 -10z"/>
<path d="M7600 7993 c0 -5 5 -15 10 -23 8 -12 10 -11 10 8 0 12 -4 22 -10 22
-5 0 -10 -3 -10 -7z"/>
<path d="M7441 7974 c0 -11 3 -14 6 -6 3 7 2 16 -1 19 -3 4 -6 -2 -5 -13z"/>
<path d="M7528 7940 c-22 -25 -23 -40 -3 -40 18 0 28 21 23 45 -2 13 -6 13
-20 -5z"/>
<path d="M7006 7941 c-4 -7 -5 -15 -2 -18 9 -9 19 4 14 18 -4 11 -6 11 -12 0z"/>
<path d="M6890 7874 c0 -8 5 -12 10 -9 6 3 10 10 10 16 0 5 -4 9 -10 9 -5 0
-10 -7 -10 -16z"/>
<path d="M7631 7763 c-1 -16 5 -23 18 -23 10 0 22 -8 25 -17 5 -12 10 -13 17
-6 15 15 -9 42 -32 36 -11 -3 -19 2 -22 14 -4 15 -5 14 -6 -4z"/>
<path d="M7460 7750 c0 -5 5 -10 10 -10 6 0 10 5 10 10 0 6 -4 10 -10 10 -5 0
-10 -4 -10 -10z"/>
<path d="M7461 7725 c1 -19 18 -51 18 -35 0 8 -4 22 -9 30 -5 8 -9 11 -9 5z"/>
<path d="M5585 6961 c-7 -12 12 -24 25 -16 11 7 4 25 -10 25 -5 0 -11 -4 -15
-9z"/>
<path d="M4580 6149 c0 -18 2 -19 15 -5 8 8 15 17 15 20 0 3 -7 6 -15 6 -9 0
-15 -9 -15 -21z"/>
<path d="M4067 5813 c-4 -6 0 -18 7 -28 8 -11 16 -14 19 -8 4 6 0 18 -7 28 -8
11 -16 14 -19 8z"/>
<path d="M4050 5740 c0 -5 5 -10 10 -10 6 0 10 5 10 10 0 6 -4 10 -10 10 -5 0
-10 -4 -10 -10z"/>
<path d="M3946 5655 c-11 -8 -33 -15 -49 -15 -24 0 -27 -3 -22 -21 7 -20 4
-21 -22 -16 -17 3 -35 1 -40 -4 -8 -8 -13 -7 -17 0 -9 13 -56 15 -56 2 0 -5
-14 -12 -30 -16 -32 -7 -110 -79 -110 -102 0 -7 -9 -13 -20 -13 -24 0 -86 -39
-119 -74 -13 -15 -36 -34 -52 -43 -15 -9 -30 -27 -33 -39 -3 -12 -31 -48 -63
-81 -60 -62 -76 -82 -95 -125 -7 -16 -16 -28 -20 -28 -4 0 -21 -20 -39 -45
-18 -25 -38 -45 -45 -45 -7 0 -10 -8 -7 -20 3 -11 9 -20 14 -20 5 0 9 -4 9
-10 0 -5 -7 -10 -15 -10 -10 0 -15 -10 -15 -29 0 -17 -4 -32 -9 -35 -5 -4 -17
-31 -26 -61 -10 -30 -23 -55 -30 -55 -7 0 -21 -40 -34 -101 -12 -56 -28 -111
-36 -122 -8 -12 -15 -29 -15 -39 0 -10 -4 -18 -9 -18 -9 0 -24 -60 -17 -68 7
-6 69 33 91 58 10 11 25 20 33 20 8 0 23 11 34 25 11 14 25 25 32 25 7 0 26
13 42 30 16 16 37 30 46 30 9 0 20 5 23 10 3 6 26 10 50 10 35 0 45 4 50 20 3
11 13 20 21 20 8 0 24 5 37 12 12 6 29 14 37 18 8 4 19 29 23 56 5 27 10 58
12 69 3 11 13 30 25 42 11 12 20 27 20 33 0 10 4 19 33 78 9 19 17 42 17 53 0
18 22 63 60 124 24 38 46 83 57 116 10 34 78 109 98 109 9 0 19 10 24 23 5 12
18 31 30 42 19 16 24 17 32 5 8 -11 9 -10 4 7 -5 17 2 30 29 55 20 18 36 37
36 43 0 5 12 21 25 34 14 13 25 27 25 32 0 5 15 10 33 10 17 1 24 3 15 6 -11
3 -18 14 -18 29 0 28 -24 32 -54 9z"/>
<path d="M3690 5255 c0 -8 0 -18 -1 -22 0 -4 4 -9 10 -11 6 -2 11 8 11 22 0
14 -4 26 -10 26 -5 0 -10 -7 -10 -15z"/>
<path d="M3596 5035 c-4 -10 1 -15 14 -15 11 0 20 7 20 15 0 8 -6 15 -14 15
-8 0 -16 -7 -20 -15z"/>
<path d="M3570 4980 c0 -5 5 -10 10 -10 6 0 10 5 10 10 0 6 -4 10 -10 10 -5 0
-10 -4 -10 -10z"/>
<path d="M3026 4871 c-4 -7 -5 -15 -2 -18 9 -9 19 4 14 18 -4 11 -6 11 -12 0z"/>
<path d="M2852 4734 c1 -9 9 -19 16 -22 9 -3 13 2 10 14 -1 9 -9 19 -16 22 -9
3 -13 -2 -10 -14z"/>
<path d="M2915 4631 c-3 -16 -13 -32 -21 -35 -8 -3 -14 -14 -14 -25 0 -11 -6
-24 -13 -28 -7 -4 -17 -21 -22 -38 -8 -22 -18 -31 -38 -33 -22 -3 -27 1 -27
18 0 12 -4 18 -10 15 -17 -11 -11 -45 8 -45 15 0 49 -37 40 -45 -2 -1 -18 -5
-35 -8 -25 -5 -33 -3 -33 8 0 8 -4 15 -10 15 -5 0 -10 -13 -10 -29 0 -40 -9
-61 -27 -61 -9 0 -26 -11 -39 -25 -25 -28 -21 -70 9 -89 14 -9 22 -5 42 19 13
17 24 40 25 53 0 13 6 22 15 22 11 0 14 7 9 25 -5 22 -3 25 19 25 21 0 24 -4
23 -28 -2 -15 -8 -37 -14 -48 -6 -12 -8 -24 -5 -28 14 -14 29 -4 41 27 7 17
18 40 23 49 5 10 9 24 9 32 0 7 7 19 15 26 8 7 15 23 15 36 0 15 6 24 16 24
11 0 14 5 9 18 -19 46 -16 67 24 142 9 17 4 40 -9 40 -5 0 -11 -13 -15 -29z"/>
<path d="M3510 4596 c0 -9 5 -16 10 -16 6 0 10 4 10 9 0 6 -4 13 -10 16 -5 3
-10 -1 -10 -9z"/>
<path d="M2820 4585 c0 -10 -10 -15 -31 -15 -26 0 -30 -3 -27 -22 3 -26 36
-35 66 -19 14 7 18 18 14 40 -4 31 -22 44 -22 16z"/>
<path d="M3417 4530 c-3 -11 -1 -23 4 -26 5 -3 9 6 9 20 0 31 -6 34 -13 6z"/>
<path d="M3080 4470 c0 -5 4 -10 9 -10 6 0 13 5 16 10 3 6 -1 10 -9 10 -9 0
-16 -4 -16 -10z"/>
<path d="M3060 4440 c0 -5 5 -10 11 -10 5 0 7 5 4 10 -3 6 -8 10 -11 10 -2 0
-4 -4 -4 -10z"/>
<path d="M3040 4395 c0 -8 5 -15 10 -15 6 0 10 7 10 15 0 8 -4 15 -10 15 -5 0
-10 -7 -10 -15z"/>
<path d="M2620 4366 c0 -9 5 -16 10 -16 6 0 10 4 10 9 0 6 -4 13 -10 16 -5 3
-10 -1 -10 -9z"/>
<path d="M2540 4356 c0 -15 24 -28 34 -19 5 6 -18 33 -28 33 -3 0 -6 -6 -6
-14z"/>
<path d="M2493 4262 c-6 -4 -14 -21 -17 -39 -4 -17 -14 -37 -22 -44 -8 -6 -14
-24 -14 -39 0 -23 4 -27 20 -23 15 4 18 11 14 28 -3 13 4 42 17 69 22 47 23
61 2 48z"/>
<path d="M2536 4252 c-5 -16 -3 -29 8 -41 21 -24 20 -38 -4 -44 -25 -6 -27
-27 -2 -27 9 0 25 12 35 25 15 21 16 28 5 47 -7 13 -16 25 -19 28 -3 3 -8 12
-11 20 -4 11 -7 9 -12 -8z"/>
<path d="M2625 4170 c3 -5 10 -10 16 -10 5 0 9 5 9 10 0 6 -7 10 -16 10 -8 0
-12 -4 -9 -10z"/>
<path d="M5580 4150 c0 -5 5 -10 10 -10 6 0 10 5 10 10 0 6 -4 10 -10 10 -5 0
-10 -4 -10 -10z"/>
<path d="M2510 4116 c0 -8 5 -18 10 -21 6 -3 10 3 10 14 0 12 -4 21 -10 21 -5
0 -10 -6 -10 -14z"/>
<path d="M5640 4111 c0 -12 4 -21 9 -21 5 0 17 -3 26 -6 13 -5 16 -2 13 17 -4
32 -48 41 -48 10z"/>
<path d="M2570 4080 c0 -5 5 -10 10 -10 6 0 10 5 10 10 0 6 -4 10 -10 10 -5 0
-10 -4 -10 -10z"/>
<path d="M5716 4053 c-11 -11 -6 -23 9 -23 8 0 15 4 15 9 0 13 -16 22 -24 14z"/>
<path d="M5650 4010 c0 -5 5 -10 10 -10 6 0 10 5 10 10 0 6 -4 10 -10 10 -5 0
-10 -4 -10 -10z"/>
<path d="M2465 3970 c-3 -5 -1 -10 4 -10 6 0 11 5 11 10 0 6 -2 10 -4 10 -3 0
-8 -4 -11 -10z"/>
<path d="M5710 3964 c0 -8 5 -12 10 -9 6 4 8 11 5 16 -9 14 -15 11 -15 -7z"/>
<path d="M5735 3860 c3 -5 8 -10 11 -10 2 0 4 5 4 10 0 6 -5 10 -11 10 -5 0
-7 -4 -4 -10z"/>
<path d="M5562 3590 c0 -14 2 -19 5 -12 2 6 2 18 0 25 -3 6 -5 1 -5 -13z"/>
<path d="M5624 3381 c21 -23 26 -26 26 -11 0 5 -10 15 -22 21 -23 12 -23 12
-4 -10z"/>
<path d="M5000 3380 c0 -5 5 -10 10 -10 6 0 10 5 10 10 0 6 -4 10 -10 10 -5 0
-10 -4 -10 -10z"/>
<path d="M5636 3321 c-4 -7 -5 -15 -2 -18 9 -9 19 4 14 18 -4 11 -6 11 -12 0z"/>
<path d="M4900 3146 c0 -24 16 -43 27 -32 8 8 -6 56 -17 56 -6 0 -10 -11 -10
-24z"/>
<path d="M5290 3126 c0 -9 5 -16 10 -16 6 0 10 4 10 9 0 6 -4 13 -10 16 -5 3
-10 -1 -10 -9z"/>
<path d="M4730 3120 c0 -5 5 -10 11 -10 5 0 7 5 4 10 -3 6 -8 10 -11 10 -2 0
-4 -4 -4 -10z"/>
<path d="M5420 3079 c0 -24 23 -21 28 4 2 10 -3 17 -12 17 -10 0 -16 -9 -16
-21z"/>
<path d="M4821 3016 c-9 -11 -9 -20 -2 -35 9 -16 7 -24 -11 -42 l-23 -22 37 6
c32 5 40 2 49 -15 15 -28 29 -7 29 45 0 34 -2 37 -24 31 -33 -8 -41 11 -14 30
l22 16 -26 0 c-14 0 -31 -6 -37 -14z"/>
<path d="M4916 3012 c-3 -6 -1 -14 5 -17 15 -10 25 3 12 16 -7 7 -13 7 -17 1z"/>
<path d="M5376 3002 c-4 -13 -5 -26 -2 -29 10 -11 18 4 14 29 l-4 23 -8 -23z"/>
<path d="M5240 3000 c0 -5 5 -10 10 -10 6 0 10 5 10 10 0 6 -4 10 -10 10 -5 0
-10 -4 -10 -10z"/>
<path d="M5170 2956 c0 -15 18 -31 26 -23 7 7 -7 37 -17 37 -5 0 -9 -6 -9 -14z"/>
<path d="M4982 2923 c4 -21 33 -25 33 -3 0 8 -8 16 -18 18 -14 3 -18 -1 -15
-15z"/>
<path d="M4932 2898 c-7 -7 -12 -18 -12 -25 0 -15 -36 -18 -45 -3 -6 10 -75
15 -75 5 0 -12 43 -85 50 -85 4 0 10 9 13 20 3 14 14 20 31 20 32 0 35 -17 4
-22 -32 -4 -30 -39 2 -55 30 -14 80 -6 80 13 0 9 11 14 30 14 20 0 33 6 37 18
4 9 24 32 45 50 44 39 49 62 13 62 -14 0 -25 -4 -25 -10 0 -5 -7 -10 -15 -10
-8 0 -15 -7 -15 -16 0 -11 -6 -15 -19 -11 -31 8 -45 -7 -32 -32 12 -21 8 -41
-8 -41 -14 0 -51 41 -45 51 3 5 9 23 14 39 9 32 -5 41 -28 18z"/>
<path d="M5165 2820 c-7 -12 2 -30 16 -30 5 0 9 9 9 20 0 21 -15 27 -25 10z"/>
<path d="M4760 2791 c0 -5 7 -14 15 -21 13 -10 15 -9 15 9 0 12 -6 21 -15 21
-8 0 -15 -4 -15 -9z"/>
<path d="M4777 2744 c-14 -15 -6 -34 14 -34 14 0 19 5 17 17 -3 18 -20 27 -31
17z"/>
<path d="M4720 2673 c0 -18 5 -33 10 -33 13 0 13 30 0 50 -7 11 -10 7 -10 -17z"/>
<path d="M4785 2590 c3 -5 10 -10 16 -10 5 0 9 5 9 10 0 6 -7 10 -16 10 -8 0
-12 -4 -9 -10z"/>
<path d="M4616 2525 c-3 -8 -1 -15 4 -15 6 0 10 7 10 15 0 8 -2 15 -4 15 -2 0
-6 -7 -10 -15z"/>
<path d="M4710 2495 c0 -14 5 -25 10 -25 6 0 10 11 10 25 0 14 -4 25 -10 25
-5 0 -10 -11 -10 -25z"/>
<path d="M4633 2473 c9 -2 23 -2 30 0 6 3 -1 5 -18 5 -16 0 -22 -2 -12 -5z"/>
<path d="M5940 6535 c0 -18 -5 -25 -18 -25 -11 0 -27 -9 -37 -20 -10 -11 -31
-20 -46 -20 -15 0 -31 -4 -34 -10 -3 -5 -15 -10 -27 -10 -11 0 -29 -11 -40
-25 -11 -14 -26 -25 -34 -25 -10 0 -14 -12 -14 -41 0 -28 -6 -46 -17 -54 -24
-18 -37 -194 -15 -212 9 -8 11 -17 5 -28 -6 -10 -5 -39 3 -78 7 -34 11 -71 8
-83 -5 -19 8 -34 28 -30 4 0 15 -10 24 -23 16 -23 20 -24 111 -18 66 4 100 10
112 21 10 9 28 16 42 16 13 0 39 9 57 20 18 11 46 20 62 20 27 0 30 3 30 30 0
39 20 81 50 105 47 37 70 68 79 104 23 93 23 91 -2 91 -23 0 -23 2 -20 72 1
41 -2 77 -8 84 -6 7 -8 17 -5 22 9 14 -17 72 -32 72 -8 0 -12 -6 -8 -15 3 -8
2 -15 -2 -15 -14 0 -32 24 -32 42 0 10 -4 18 -10 18 -5 0 -10 -7 -10 -15 0
-21 -30 -33 -68 -28 -36 6 -50 19 -34 35 6 6 12 6 16 -1 9 -14 43 -14 51 0 11
17 -36 44 -77 45 -30 0 -38 -4 -38 -17 0 -10 5 -21 11 -25 8 -4 7 -9 -2 -15
-27 -17 -39 -9 -39 26 0 19 -4 35 -10 35 -5 0 -10 -11 -10 -25z"/>
<path d="M5700 6460 c0 -11 -4 -20 -10 -20 -5 0 -10 -4 -10 -10 0 -5 7 -10 15
-10 10 0 15 10 15 30 0 17 -2 30 -5 30 -3 0 -5 -9 -5 -20z"/>
<path d="M5416 6121 c-4 -7 -5 -15 -2 -18 9 -9 19 4 14 18 -4 11 -6 11 -12 0z"/>
<path d="M5557 5983 c-4 -3 -7 -11 -7 -17 0 -6 5 -5 12 2 6 6 9 14 7 17 -3 3
-9 2 -12 -2z"/>
<path d="M3880 4469 c-7 -11 -9 -23 -6 -26 7 -7 46 26 46 39 0 17 -30 7 -40
-13z"/>
<path d="M4338 3683 c7 -3 16 -2 19 1 4 3 -2 6 -13 5 -11 0 -14 -3 -6 -6z"/>
<path d="M3027 2833 c-13 -13 -7 -32 8 -27 8 4 15 12 15 20 0 15 -12 19 -23 7z"/>
<path d="M3150 2565 c0 -8 5 -15 10 -15 6 0 10 7 10 15 0 8 -4 15 -10 15 -5 0
-10 -7 -10 -15z"/>
<path d="M1156 851 c-3 -5 8 -14 26 -20 43 -15 47 -14 18 9 -28 22 -36 24 -44
11z"/>
</g>
</svg>
